<?xml version="1.0" encoding="UTF-8"?> <svg xmlns="http://www.w3.org/2000/svg" width="173" height="65" viewBox="0 0 173 65" fill="none"><g clip-path="url(#clip0_6626_4)"><mask id="mask0_6626_4" style="mask-type:luminance" maskUnits="userSpaceOnUse" x="0" y="0" width="173" height="65"><path d="M173 0H0V65H173V0Z" fill="white"></path></mask><g mask="url(#mask0_6626_4)"><path d="M83.1836 13.4344H75.6406V4H76.758V12.3244H81.8566V4H82.974V12.3244H84.2312V15.1686H83.1836V13.4344Z" fill="black"></path><path d="M90.0283 11.9088L90.3775 12.7412C89.8188 13.2962 89.0505 13.5043 88.0727 13.5043C87.0949 13.5043 86.3266 13.2268 85.698 12.6719C85.0695 12.1169 84.7901 11.3538 84.7901 10.3827C84.7901 9.48084 85.0695 8.71776 85.6282 8.1628C86.1869 7.53847 86.9552 7.26099 87.933 7.26099C88.7711 7.26099 89.3997 7.53847 89.9584 8.02406C90.5172 8.50965 90.7966 9.20335 90.7966 10.0358C90.7966 10.3133 90.7966 10.5214 90.7267 10.7295H86.0473C86.1171 11.2845 86.3266 11.7701 86.6758 12.0475C87.0251 12.3944 87.5838 12.5331 88.1425 12.5331C88.9108 12.5331 89.5394 12.325 90.0283 11.9088ZM87.8632 8.23217C87.3044 8.23217 86.8854 8.37091 86.5362 8.64839C86.187 8.92587 85.9774 9.34209 85.9076 9.82769H89.6092C89.6092 9.34209 89.3997 8.92587 89.1203 8.64839C88.841 8.37091 88.4219 8.23217 87.8632 8.23217Z" fill="black"></path><path d="M97.501 13.4339H96.3835V10.8672H93.0311V13.4339H91.9835V7.39868H93.0311V9.89601H96.3835V7.39868H97.4312V13.4339H97.501Z" fill="black"></path><path d="M100.574 8.43924H98.3391V7.39868H103.857V8.43924H101.622V13.4339H100.574V8.43924Z" fill="black"></path><path d="M105.812 16.0703H104.765V7.32966H105.812V8.02336C106.022 7.74588 106.301 7.53777 106.72 7.39903C107.069 7.26029 107.488 7.19092 107.907 7.19092C108.746 7.19092 109.444 7.4684 109.933 8.02336C110.422 8.57833 110.701 9.3414 110.701 10.2432C110.701 11.145 110.422 11.9081 109.793 12.5324C109.234 13.1568 108.466 13.4342 107.488 13.4342C106.79 13.4342 106.161 13.2955 105.742 13.018V16.0703H105.812ZM107.628 8.23147C106.93 8.23147 106.301 8.50895 105.882 9.06392V12.0468C106.371 12.3937 106.93 12.5324 107.488 12.5324C108.117 12.5324 108.606 12.3243 109.025 11.9081C109.374 11.4919 109.584 10.9369 109.584 10.3126C109.584 9.68825 109.374 9.20266 109.025 8.78644C108.676 8.43958 108.187 8.23147 107.628 8.23147Z" fill="black"></path><path d="M119.223 11.769L119.712 12.5321C119.223 13.2258 118.385 13.5727 117.407 13.5727C116.429 13.5727 115.661 13.2952 115.032 12.7402C114.404 12.1853 114.124 11.4222 114.124 10.451C114.124 9.5492 114.404 8.78612 115.032 8.23116C115.591 7.60683 116.359 7.32935 117.267 7.32935C118.315 7.32935 119.153 7.60683 119.642 8.09242L119.153 8.92486C118.664 8.50864 118.105 8.30053 117.407 8.30053C116.848 8.30053 116.359 8.50864 115.94 8.92486C115.521 9.34109 115.311 9.82668 115.311 10.451C115.311 11.0753 115.521 11.6303 115.94 11.9772C116.359 12.3934 116.918 12.6015 117.477 12.6015C118.245 12.5321 118.804 12.2546 119.223 11.769Z" fill="black"></path><path d="M125.508 11.9088L125.857 12.7412C125.298 13.2962 124.53 13.5043 123.552 13.5043C122.575 13.5043 121.806 13.2268 121.178 12.6719C120.549 12.1169 120.27 11.3538 120.27 10.3827C120.27 9.48084 120.549 8.71776 121.108 8.1628C121.667 7.53847 122.435 7.26099 123.413 7.26099C124.251 7.26099 124.879 7.53847 125.438 8.02406C125.997 8.50965 126.276 9.20335 126.276 10.0358C126.276 10.3133 126.276 10.5214 126.206 10.7295H121.527C121.597 11.2845 121.806 11.7701 122.156 12.0475C122.505 12.3944 123.063 12.5331 123.622 12.5331C124.39 12.5331 125.019 12.325 125.508 11.9088ZM123.343 8.23217C122.784 8.23217 122.365 8.37091 122.016 8.64839C121.667 8.92587 121.457 9.34209 121.387 9.82769H125.089C125.089 9.34209 124.879 8.92587 124.6 8.64839C124.321 8.37091 123.902 8.23217 123.343 8.23217Z" fill="black"></path><path d="M128.512 13.4339H127.464V7.39868H128.442L130.747 10.3816L132.982 7.39868H133.959V13.4339H132.912V9.06357L130.816 11.8384H130.747L128.581 9.06357V13.4339H128.512Z" fill="black"></path><path d="M140.315 11.9088L140.664 12.7412C140.105 13.2962 139.337 13.5043 138.359 13.5043C137.382 13.5043 136.613 13.2268 135.985 12.6719C135.356 12.1169 135.077 11.3538 135.077 10.3827C135.077 9.48084 135.356 8.71776 135.915 8.1628C136.474 7.53847 137.242 7.26099 138.22 7.26099C139.058 7.26099 139.686 7.53847 140.245 8.02406C140.804 8.50965 141.083 9.20335 141.083 10.0358C141.083 10.3133 141.083 10.5214 141.013 10.7295H136.334C136.404 11.2845 136.613 11.7701 136.962 12.0475C137.312 12.3944 137.87 12.5331 138.429 12.5331C139.267 12.5331 139.896 12.325 140.315 11.9088ZM138.22 8.23217C137.661 8.23217 137.242 8.37091 136.893 8.64839C136.543 8.92587 136.334 9.34209 136.264 9.82769H139.966C139.966 9.34209 139.756 8.92587 139.477 8.64839C139.197 8.37091 138.709 8.23217 138.22 8.23217Z" fill="black"></path><path d="M146.88 8.92491L143.387 13.434H142.34V7.39876H143.387V11.9078L146.88 7.39876H147.927V13.434H146.88V8.92491ZM143.108 4.2771H144.156C144.226 4.9708 144.575 5.31765 145.203 5.31765C145.832 5.31765 146.111 4.9708 146.181 4.2771H147.229C147.229 4.83206 147.019 5.24829 146.67 5.59514C146.321 5.94199 145.832 6.1501 145.203 6.1501C144.575 6.1501 144.086 6.01136 143.667 5.66451C143.318 5.31765 143.108 4.83206 143.108 4.2771Z" fill="black"></path><path d="M155.051 13.4339H154.003V10.8672H150.651V13.4339H149.603V7.39868H150.651V9.89601H154.003V7.39868H155.051V13.4339Z" fill="black"></path><path d="M157.146 12.6719C156.518 12.0475 156.238 11.2845 156.238 10.3827C156.238 9.48084 156.518 8.71776 157.146 8.1628C157.775 7.53847 158.543 7.26099 159.521 7.26099C160.499 7.26099 161.267 7.53847 161.826 8.1628C162.454 8.78713 162.734 9.48084 162.734 10.3827C162.734 11.2845 162.454 12.0475 161.826 12.6719C161.197 13.2962 160.429 13.5737 159.521 13.5737C158.543 13.5043 157.775 13.2268 157.146 12.6719ZM157.426 10.3827C157.426 11.007 157.635 11.5619 157.984 11.9088C158.404 12.325 158.892 12.5331 159.521 12.5331C160.15 12.5331 160.638 12.325 161.058 11.9088C161.477 11.4926 161.616 11.007 161.616 10.3827C161.616 9.75832 161.407 9.27272 160.988 8.8565C160.569 8.44028 160.08 8.23217 159.521 8.23217C158.962 8.23217 158.404 8.44028 158.054 8.8565C157.565 9.20335 157.426 9.75832 157.426 10.3827Z" fill="black"></path><path d="M168.531 8.92491L165.039 13.434H163.992V7.39876H165.039V11.9078L168.531 7.39876H169.579V13.434H168.531V8.92491ZM164.83 4.2771H165.877C165.947 4.9708 166.296 5.31765 166.925 5.31765C167.554 5.31765 167.833 4.9708 167.903 4.2771H168.95C168.95 4.83206 168.741 5.24829 168.392 5.59514C168.042 5.94199 167.554 6.1501 166.925 6.1501C166.296 6.1501 165.807 6.01136 165.388 5.66451C164.969 5.31765 164.83 4.83206 164.83 4.2771Z" fill="black"></path><path d="M80.6689 28.9727H79.6213V23.9087H76.3387V28.9727H75.291V22.9375H80.7387V28.9727H80.6689Z" fill="black"></path><path d="M86.9544 27.3081L87.4433 28.0712C86.9544 28.7649 86.1163 29.1117 85.1385 29.1117C84.1607 29.1117 83.3924 28.8343 82.7639 28.2793C82.1353 27.7243 81.8559 26.9613 81.8559 25.9901C81.8559 25.0883 82.1353 24.3252 82.7639 23.7702C83.3226 23.1459 84.0909 22.8684 84.9988 22.8684C86.0465 22.8684 86.8846 23.1459 87.3735 23.6315L86.8846 24.4639C86.3957 24.0477 85.8369 23.8396 85.1385 23.8396C84.5798 23.8396 84.0909 24.0477 83.6718 24.4639C83.2528 24.8802 83.0432 25.3657 83.0432 25.9901C83.0432 26.6144 83.2528 27.1694 83.6718 27.5162C84.0909 27.9324 84.6496 28.1406 85.2083 28.1406C85.9068 28.0712 86.5354 27.8631 86.9544 27.3081Z" fill="black"></path><path d="M93.0312 24.4636L89.539 28.9727H88.4914V22.9375H89.539V27.4466L93.0312 22.9375H94.0788V28.9727H93.0312V24.4636Z" fill="black"></path><path d="M99.8755 22.9375H101.133L98.9675 25.8511L101.272 28.9727H99.8755L98.0596 26.5448L96.2437 28.9727H94.9865L97.2913 25.9204L95.1262 22.9375H96.4532L98.1294 25.2267L99.8755 22.9375Z" fill="black"></path><path d="M102.391 28.2095C101.762 27.5851 101.483 26.8221 101.483 25.9202C101.483 25.0184 101.762 24.2554 102.391 23.7004C103.019 23.0761 103.787 22.7986 104.765 22.7986C105.743 22.7986 106.511 23.0761 107.07 23.7004C107.699 24.3247 107.978 25.0184 107.978 25.9202C107.978 26.8221 107.699 27.5851 107.07 28.2095C106.441 28.8338 105.673 29.1113 104.765 29.1113C103.787 29.1113 103.019 28.8338 102.391 28.2095ZM102.67 25.9202C102.67 26.5446 102.879 27.0995 103.229 27.4464C103.648 27.8626 104.137 28.0707 104.765 28.0707C105.394 28.0707 105.883 27.8626 106.302 27.4464C106.721 27.0302 106.86 26.5446 106.86 25.9202C106.86 25.2959 106.651 24.8103 106.232 24.3941C105.813 23.9779 105.324 23.7698 104.765 23.7698C104.206 23.7698 103.648 23.9779 103.299 24.3941C102.879 24.8103 102.67 25.2959 102.67 25.9202Z" fill="black"></path><path d="M114.333 28.973H113.286V23.9783H111.121L111.051 25.0189C110.981 25.8513 110.841 26.545 110.702 27.1C110.562 27.655 110.352 28.0712 110.143 28.3487C109.933 28.6261 109.724 28.8343 109.444 28.9036C109.165 28.973 108.956 29.0424 108.606 29.0424L108.536 28.0018C108.606 28.0018 108.746 28.0018 108.816 27.9324C108.956 27.8631 109.025 27.7937 109.165 27.655C109.305 27.5162 109.444 27.3081 109.514 27.1C109.584 26.8919 109.724 26.545 109.794 26.1288C109.864 25.7126 109.933 25.227 109.933 24.7414L110.073 22.8684H114.333V28.973Z" fill="black"></path><path d="M116.359 28.2095C115.73 27.5851 115.451 26.8221 115.451 25.9202C115.451 25.0184 115.73 24.2554 116.359 23.7004C116.987 23.0761 117.756 22.7986 118.734 22.7986C119.711 22.7986 120.48 23.0761 121.038 23.7004C121.667 24.3247 121.946 25.0184 121.946 25.9202C121.946 26.8221 121.667 27.5851 121.038 28.2095C120.41 28.8338 119.641 29.1113 118.734 29.1113C117.756 29.1113 116.987 28.8338 116.359 28.2095ZM116.638 25.9202C116.638 26.5446 116.848 27.0995 117.197 27.4464C117.616 27.8626 118.105 28.0707 118.734 28.0707C119.362 28.0707 119.851 27.8626 120.27 27.4464C120.689 27.0302 120.829 26.5446 120.829 25.9202C120.829 25.2959 120.619 24.8103 120.2 24.3941C119.781 23.9779 119.292 23.7698 118.734 23.7698C118.175 23.7698 117.616 23.9779 117.267 24.3941C116.848 24.8103 116.638 25.2959 116.638 25.9202Z" fill="black"></path><path d="M124.251 28.9727H123.203V22.9375H127.044V23.9781H124.251V28.9727Z" fill="black"></path><path d="M132.422 24.4636L128.93 28.9727H127.813V22.9375H128.86V27.4466L132.353 22.9375H133.4V28.9727H132.353V24.4636H132.422Z" fill="black"></path><path d="M139.686 24.4636L136.194 28.9727H135.146V22.9375H136.194V27.4466L139.686 22.9375H140.734V28.9727H139.686V24.4636Z" fill="black"></path><path d="M75.6406 44.5123V35.1473C76.8977 35.0779 77.7358 35.0779 78.2247 35.0779C79.2724 35.0779 80.0406 35.286 80.5295 35.7022C81.0184 36.1184 81.2978 36.6734 81.2978 37.4365C81.2978 37.9914 81.1581 38.4077 80.8788 38.8239C80.5994 39.2401 80.1803 39.4482 79.6914 39.6563C80.32 39.7257 80.8089 40.0032 81.1581 40.35C81.5073 40.7663 81.647 41.2518 81.647 41.8762C81.647 42.778 81.3676 43.4717 80.7391 43.8879C80.1105 44.3735 79.2724 44.5816 78.2247 44.5816C77.1771 44.5816 76.339 44.5816 75.6406 44.5123ZM78.2247 36.1878C77.9454 36.1878 77.4565 36.1878 76.8279 36.2572V39.3095H78.3644C78.9232 39.3095 79.3422 39.1707 79.6914 38.8933C80.0406 38.6158 80.1803 38.1996 80.1803 37.714C80.1105 36.6734 79.4819 36.1878 78.2247 36.1878ZM78.2946 40.2807H76.8279V43.4717C77.1771 43.5411 77.666 43.5411 78.2946 43.5411C78.993 43.5411 79.5517 43.4023 79.9708 43.1248C80.32 42.8474 80.5295 42.4311 80.5295 41.8762C80.5295 41.3906 80.32 40.9744 79.9708 40.7663C79.6216 40.5581 78.993 40.2807 78.2946 40.2807Z" fill="black"></path><path d="M84.929 44.5123H82.9734V38.4771H84.0211V40.2807H84.9989C85.837 40.2807 86.4656 40.4888 86.8148 40.8356C87.2339 41.1825 87.3735 41.7375 87.3735 42.3618C87.3735 42.9861 87.164 43.4717 86.745 43.8879C86.4656 44.3042 85.837 44.5123 84.929 44.5123ZM84.8592 41.3212H84.0909V43.5411H84.8592C85.3481 43.5411 85.7672 43.4717 85.9767 43.2636C86.1862 43.0555 86.3259 42.778 86.3259 42.4312C86.3259 41.6681 85.837 41.3212 84.8592 41.3212ZM89.7482 44.5123H88.7006V38.4771H89.7482V44.5123Z" fill="black"></path><path d="M95.9645 42.8481L96.4534 43.6112C95.9645 44.3049 95.1264 44.6518 94.1486 44.6518C93.1708 44.6518 92.4025 44.3743 91.7739 43.8193C91.1453 43.2644 90.866 42.5013 90.866 41.5301C90.866 40.6283 91.1453 39.8652 91.7739 39.3103C92.3327 38.6859 93.1009 38.4084 94.0089 38.4084C95.0565 38.4084 95.8946 38.6859 96.3835 39.1715L95.8946 40.004C95.4057 39.5877 94.847 39.3796 94.1486 39.3796C93.5898 39.3796 93.1009 39.5877 92.6819 40.004C92.2628 40.4202 92.0533 40.9058 92.0533 41.5301C92.0533 42.1544 92.2628 42.7094 92.6819 43.0563C93.1009 43.4725 93.6597 43.6806 94.2184 43.6806C94.9867 43.6806 95.5454 43.4031 95.9645 42.8481Z" fill="black"></path><path d="M99.2465 39.5872H97.0115V38.5466H102.529V39.5872H100.294V44.5819H99.2465V39.5872Z" fill="black"></path><path d="M103.717 39.7959L103.438 38.9634C104.066 38.6166 104.695 38.4084 105.463 38.4084C106.301 38.4084 106.86 38.6166 107.279 39.0328C107.628 39.449 107.838 40.0733 107.838 40.9058V44.5824H106.79V43.8193C106.301 44.3743 105.673 44.7211 104.834 44.7211C104.276 44.7211 103.857 44.5824 103.507 44.2356C103.158 43.8887 103.018 43.4725 103.018 42.8481C103.018 42.2238 103.228 41.8076 103.647 41.4607C104.066 41.1139 104.625 40.9751 105.323 40.9751C105.952 40.9751 106.441 41.1139 106.86 41.3914C106.86 40.6977 106.79 40.2121 106.58 39.9346C106.371 39.6571 106.022 39.5184 105.463 39.5184C104.904 39.3103 104.345 39.449 103.717 39.7959ZM105.253 43.6806C105.882 43.6806 106.371 43.4031 106.79 42.9175V42.1544C106.441 41.877 105.952 41.7382 105.393 41.7382C105.044 41.7382 104.695 41.8076 104.485 42.0157C104.206 42.2238 104.136 42.4319 104.136 42.7788C104.136 43.0563 104.206 43.3337 104.415 43.4725C104.625 43.6112 104.904 43.6806 105.253 43.6806Z" fill="black"></path><path d="M109.304 44.5123V38.4771C109.374 38.4771 109.444 38.4771 109.514 38.4771C109.584 38.4771 109.724 38.4771 109.863 38.4771C110.003 38.4771 110.143 38.4771 110.282 38.4771C110.981 38.4771 111.33 38.4771 111.539 38.4771C113.285 38.4771 114.193 38.9626 114.193 40.0032C114.193 40.3501 114.054 40.6969 113.844 40.905C113.635 41.1131 113.355 41.3212 112.936 41.3906C113.914 41.5293 114.333 42.0149 114.333 42.778C114.333 43.9573 113.425 44.5123 111.539 44.5123C111.47 44.5123 111.051 44.5123 110.352 44.5123C110.212 44.5123 110.073 44.5123 109.933 44.5123C109.793 44.5123 109.654 44.5123 109.584 44.5123C109.444 44.5123 109.374 44.5123 109.304 44.5123ZM111.609 39.3095C111.33 39.3095 110.981 39.3095 110.422 39.3789V41.1825H111.819C112.168 41.1825 112.517 41.1131 112.727 40.905C112.936 40.6969 113.076 40.4888 113.076 40.2113C113.006 39.587 112.517 39.3095 111.609 39.3095ZM111.679 41.8068H110.352V43.6798C110.981 43.6798 111.4 43.7492 111.609 43.7492C112.657 43.7492 113.146 43.4023 113.146 42.778C113.216 42.1537 112.727 41.8068 111.679 41.8068Z" fill="black"></path><path d="M116.707 44.5123H115.659V38.4771H116.707V44.5123ZM119.501 38.4771H120.897L118.243 41.3906L121.177 44.5123H119.71L116.986 41.46L119.501 38.4771Z" fill="black"></path><path d="M126.624 40.0032L123.132 44.5123H122.085V38.4771H123.132V42.9861L126.624 38.4771H127.672V44.5123H126.624V40.0032Z" fill="black"></path><path d="M134.796 44.5123H133.749V41.9456H130.396V44.5123H129.349V38.4771H130.396V40.9744H133.749V38.4771H134.796V44.5123Z" fill="black"></path><path d="M136.892 43.7493C136.264 43.1249 135.984 42.3619 135.984 41.46C135.984 40.5582 136.264 39.7952 136.892 39.2402C137.521 38.6159 138.289 38.3384 139.267 38.3384C140.245 38.3384 141.013 38.6159 141.572 39.2402C142.2 39.8645 142.479 40.5582 142.479 41.46C142.479 42.3619 142.2 43.1249 141.572 43.7493C140.943 44.3736 140.175 44.6511 139.267 44.6511C138.289 44.6511 137.521 44.3736 136.892 43.7493ZM137.171 41.5294C137.171 42.1537 137.381 42.7087 137.73 43.0556C138.149 43.4718 138.638 43.6799 139.267 43.6799C139.895 43.6799 140.384 43.4718 140.803 43.0556C141.222 42.6393 141.362 42.1537 141.362 41.5294C141.362 40.9051 141.152 40.4195 140.733 40.0033C140.314 39.587 139.825 39.3789 139.267 39.3789C138.638 39.3789 138.149 39.587 137.8 40.0033C137.381 40.3501 137.171 40.9051 137.171 41.5294Z" fill="black"></path><path d="M148.347 40.0028L144.855 44.5118H143.807V38.4766H144.855V42.9857L148.347 38.4766H149.394V44.5118H148.347V40.0028ZM144.575 35.4243H145.623C145.693 36.118 146.042 36.4649 146.671 36.4649C147.299 36.4649 147.578 36.118 147.648 35.4243H148.696C148.696 35.9793 148.486 36.3955 148.137 36.7424C147.788 37.0892 147.299 37.2973 146.671 37.2973C146.042 37.2973 145.553 37.1586 145.134 36.8117C144.785 36.3955 144.575 35.9793 144.575 35.4243Z" fill="black"></path><path d="M156.099 36.1878H152.816V35.1472H160.569V36.1878H157.286V44.5122H156.169V36.1878H156.099Z" fill="black"></path><path d="M159.591 43.8185C159.591 43.6104 159.661 43.4716 159.801 43.3329C159.94 43.1941 160.15 43.1248 160.359 43.1248C160.569 43.1248 160.709 43.1941 160.848 43.3329C160.988 43.4716 161.058 43.6104 161.058 43.8185C161.058 44.0266 160.988 44.2347 160.848 44.3734C160.709 44.5122 160.569 44.5815 160.359 44.5815C160.15 44.5815 159.94 44.5122 159.801 44.3734C159.661 44.1653 159.591 44.0266 159.591 43.8185Z" fill="black"></path><path d="M162.873 44.5123H161.686L165.737 35.0779H166.714L170.765 44.5123H169.508L168.321 41.6681H164.13L162.873 44.5123ZM167.972 40.6275L166.295 36.604L164.619 40.6275H167.972Z" fill="black"></path><path d="M171.534 43.8185C171.534 43.6104 171.603 43.4716 171.743 43.3329C171.883 43.1941 172.092 43.1248 172.302 43.1248C172.511 43.1248 172.651 43.1941 172.791 43.3329C172.93 43.4716 173 43.6104 173 43.8185C173 44.0266 172.93 44.2347 172.791 44.3734C172.651 44.5122 172.511 44.5815 172.302 44.5815C172.092 44.5815 171.883 44.5122 171.743 44.3734C171.603 44.1653 171.534 44.0266 171.534 43.8185Z" fill="black"></path><path d="M28.1461 9.3645C28.2159 9.3645 28.2159 9.3645 28.2857 9.43387C28.8445 9.57261 29.1239 9.50324 29.4731 9.29513C30.1715 8.80954 31.3588 7.76898 31.2191 5.89598C31.0096 3.60676 28.4254 2.49684 27.3778 0.207614C27.2381 -0.0698672 26.9587 -0.000496881 26.9587 0.138244C26.5397 2.42747 24.8635 4.2311 25.2825 6.31221C25.6317 8.32395 27.1683 9.08702 28.1461 9.3645Z" fill="url(#paint0_radial_6626_4)"></path><path d="M27.0984 17.2034C26.3302 18.9376 27.0286 20.325 27.5873 21.0187L27.6572 21.0881C28.0064 21.5043 28.2159 21.5737 28.635 21.6431C29.4032 21.6431 30.8699 21.5043 31.7779 19.9782C32.8954 18.1746 31.5683 15.8853 31.9874 13.5961C31.9874 13.4574 31.8477 13.3186 31.708 13.4574C30.1715 14.9141 27.9365 15.3304 27.0984 17.2034Z" fill="url(#paint1_radial_6626_4)"></path><path d="M30.1017 27.8869C30.1017 29.205 31.1493 30.2455 32.4763 30.2455C33.8033 30.2455 34.851 29.205 34.851 27.8869C34.851 26.5689 33.8033 25.5283 32.4763 25.5283C31.1493 25.5283 30.1017 26.5689 30.1017 27.8869Z" fill="url(#paint2_radial_6626_4)"></path><path d="M37.0169 16.3711C37.5756 17.1342 37.9249 17.3423 38.6233 17.4116C39.9503 17.5504 42.6043 17.481 44.4202 14.9837C46.5853 11.9314 44.5599 7.76916 45.6774 3.88442C45.7472 3.60694 45.4679 3.39883 45.1885 3.53757C42.2551 5.89616 38.2741 6.38175 36.528 9.43405C34.9216 12.3476 36.0391 14.8449 36.8772 16.163C36.9471 16.3017 37.0169 16.3711 37.0169 16.3711Z" fill="url(#paint3_radial_6626_4)"></path><path d="M20.3246 28.1641C21.3024 28.1641 22.0706 27.401 22.0706 26.4298C22.0706 25.4586 21.3024 24.6956 20.3246 24.6956C19.3468 24.6956 18.5785 25.4586 18.5785 26.4298C18.6483 27.401 19.4166 28.1641 20.3246 28.1641Z" fill="url(#paint4_radial_6626_4)"></path><path d="M40.2292 33.5059C40.2292 34.4077 40.9277 35.1014 41.8356 35.1014C42.7436 35.1014 43.442 34.4077 43.442 33.5059C43.442 32.6041 42.7436 31.9104 41.8356 31.9104C40.9277 31.9104 40.2292 32.6735 40.2292 33.5059Z" fill="url(#paint5_radial_6626_4)"></path><path d="M15.2957 14.498C16.5528 16.9953 18.8576 17.4809 20.1847 17.4809C20.2545 17.4809 20.3243 17.4809 20.3942 17.4809C21.2323 17.4809 21.5117 17.2728 21.9307 16.8566C22.699 16.0242 23.8863 14.1512 22.9784 11.7232C21.9307 8.74027 18.0195 8.18531 15.7846 5.54924C15.6449 5.34113 15.2957 5.47987 15.3655 5.68798C15.575 8.87901 13.9687 11.8619 15.2957 14.498Z" fill="url(#paint6_radial_6626_4)"></path><path d="M8.38122 21.4354C9.56854 22.476 10.8955 22.2679 11.594 21.9904C11.594 21.9904 11.6638 21.9904 11.6638 21.921C12.0829 21.7129 12.2226 21.5741 12.3622 21.2967C12.5718 20.6723 12.8511 19.493 11.8733 18.3831C10.686 17.0651 8.5209 17.5507 6.84468 16.5795C6.705 16.5101 6.56531 16.6489 6.63515 16.7876C7.33358 18.4525 7.12405 20.3255 8.38122 21.4354Z" fill="url(#paint7_radial_6626_4)"></path><path d="M57.2704 20.1864C57.48 20.0476 57.3403 19.7008 57.0609 19.7702C53.8482 20.117 50.7751 18.5215 48.1211 19.9089C45.5369 21.2269 45.1179 23.5162 45.1179 24.9036C45.1179 24.9729 45.1179 25.0423 45.1179 25.1117C45.1877 25.9441 45.3274 26.2216 45.7464 26.6378C46.5846 27.4009 48.5401 28.5802 51.0545 27.609C54.0577 26.4297 54.6164 22.4756 57.2704 20.1864Z" fill="url(#paint8_radial_6626_4)"></path><path d="M60.973 35.3089C58.5285 34.1989 56.992 31.8404 54.5475 31.7016C52.1729 31.5629 50.9157 33.0196 50.357 33.9908C50.357 34.0602 50.2871 34.0602 50.2871 34.1296C49.9379 34.7539 50.0078 35.0314 50.0776 35.4476C50.4268 36.3494 51.2649 37.9449 53.43 38.2918C56.0142 38.708 58.0396 36.1413 60.9032 35.6557C61.1127 35.6557 61.1826 35.3782 60.973 35.3089Z" fill="url(#paint9_radial_6626_4)"></path><path d="M46.8641 36.2806C40.9274 37.2518 35.8289 39.8185 34.7813 38.8473C33.5241 37.6681 37.2956 31.3553 42.0449 27.9562C42.3243 27.7481 42.0449 27.3319 41.7656 27.4706C35.2702 30.5229 24.0954 41.7609 26.47 58.271C26.5399 58.826 27.0288 59.4503 27.7272 59.4503C32.3368 59.381 37.5052 59.8666 40.7878 60.4909C41.4163 60.6296 41.6957 60.0053 40.9973 59.6584C40.4385 59.4503 37.7845 58.6873 35.8988 58.271C33.9432 57.7854 32.9654 57.0224 32.3368 55.7043C28.1463 46.6862 33.6638 41.5528 47.0038 36.905C47.6323 36.6969 47.4926 36.1419 46.8641 36.2806Z" fill="url(#paint10_radial_6626_4)"></path><path d="M22.6291 58.2012C21.9306 42.1073 36.7373 30.6612 20.7433 21.643C20.464 21.4349 20.0449 21.7124 20.464 22.1286C27.7276 28.1638 26.4704 35.9333 13.4099 25.8053C13.1305 25.5971 12.6416 25.8053 12.9908 26.1521C18.3687 32.9504 26.8196 33.5054 23.2577 43.2866C21.9306 46.9632 20.9529 50.4317 19.6258 55.6345C19.2068 57.3688 18.5782 57.3688 17.3909 57.6462C15.0861 58.2012 12.921 58.8949 11.105 59.5886C10.3368 59.8661 10.5463 60.4904 11.2447 60.4211C13.2003 60.1436 17.1115 59.3805 21.5116 59.3805C22.1402 59.4499 22.6291 59.0337 22.6291 58.2012Z" fill="url(#paint11_radial_6626_4)"></path><path d="M12.5715 37.5288C13.2 36.9044 13.2699 36.5576 13.2699 35.9333C13.2 34.754 12.781 32.4647 10.3365 31.2161C7.33326 29.6899 3.91097 32.0485 0.279161 31.6323C-0.000208843 31.6323 -0.139894 31.9098 0.0696337 32.1179C2.58397 34.3377 3.56176 37.8063 6.49515 38.8468C9.28885 39.8874 11.3841 38.5693 12.4318 37.5981C12.5016 37.6675 12.5016 37.5981 12.5715 37.5288Z" fill="url(#paint12_radial_6626_4)"></path><path d="M36.3182 63.8897C31.9181 62.2942 20.7433 61.9473 14.9464 63.8897C14.1082 64.1672 14.3876 65.069 15.2257 64.9303C21.0925 63.8203 30.0324 63.8897 36.0388 64.7915C36.8769 64.9303 37.0865 64.1672 36.3182 63.8897Z" fill="url(#paint13_radial_6626_4)"></path><path d="M75.8281 63V62.2969L78.4687 59.4062C78.7786 59.0677 79.0339 58.7734 79.2344 58.5234C79.4349 58.2708 79.5833 58.0339 79.6797 57.8125C79.7786 57.5885 79.8281 57.3542 79.8281 57.1094C79.8281 56.8281 79.7604 56.5846 79.625 56.3789C79.4922 56.1732 79.3099 56.0143 79.0781 55.9023C78.8464 55.7904 78.5859 55.7344 78.2969 55.7344C77.9896 55.7344 77.7214 55.7982 77.4922 55.9258C77.2656 56.0508 77.0898 56.2266 76.9648 56.4531C76.8424 56.6797 76.7813 56.9453 76.7813 57.25H75.8594C75.8594 56.7812 75.9674 56.3698 76.1836 56.0156C76.3997 55.6615 76.694 55.3854 77.0664 55.1875C77.4414 54.9896 77.862 54.8906 78.3281 54.8906C78.7969 54.8906 79.2122 54.9896 79.5742 55.1875C79.9362 55.3854 80.2201 55.6523 80.4258 55.9883C80.6315 56.3242 80.7344 56.6979 80.7344 57.1094C80.7344 57.4036 80.681 57.6914 80.5742 57.9727C80.4701 58.2513 80.2878 58.5625 80.0273 58.9062C79.7695 59.2474 79.4115 59.6641 78.9531 60.1562L77.1563 62.0781V62.1406H80.875V63H75.8281ZM85.0977 63.1094C84.5091 63.1094 84.0078 62.9492 83.5938 62.6289C83.1797 62.306 82.8633 61.8385 82.6445 61.2266C82.4258 60.612 82.3164 59.8698 82.3164 59C82.3164 58.1354 82.4258 57.3971 82.6445 56.7852C82.8659 56.1706 83.1836 55.7018 83.5977 55.3789C84.0143 55.0534 84.5143 54.8906 85.0977 54.8906C85.681 54.8906 86.1797 55.0534 86.5938 55.3789C87.0104 55.7018 87.3281 56.1706 87.5469 56.7852C87.7682 57.3971 87.8789 58.1354 87.8789 59C87.8789 59.8698 87.7695 60.612 87.5508 61.2266C87.332 61.8385 87.0156 62.306 86.6016 62.6289C86.1875 62.9492 85.6862 63.1094 85.0977 63.1094ZM85.0977 62.25C85.681 62.25 86.1341 61.9687 86.457 61.4062C86.7799 60.8437 86.9414 60.0417 86.9414 59C86.9414 58.3073 86.8672 57.7174 86.7188 57.2305C86.5729 56.7435 86.362 56.3724 86.0859 56.1172C85.8125 55.862 85.4831 55.7344 85.0977 55.7344C84.5195 55.7344 84.0677 56.0195 83.7422 56.5898C83.4167 57.1576 83.2539 57.9609 83.2539 59C83.2539 59.6927 83.3268 60.2812 83.4727 60.7656C83.6185 61.25 83.8281 61.6185 84.1016 61.8711C84.3776 62.1237 84.7096 62.25 85.0977 62.25ZM91.9727 63.1094C91.3841 63.1094 90.8828 62.9492 90.4688 62.6289C90.0547 62.306 89.7383 61.8385 89.5195 61.2266C89.3008 60.612 89.1914 59.8698 89.1914 59C89.1914 58.1354 89.3008 57.3971 89.5195 56.7852C89.7409 56.1706 90.0586 55.7018 90.4727 55.3789C90.8893 55.0534 91.3893 54.8906 91.9727 54.8906C92.556 54.8906 93.0547 55.0534 93.4688 55.3789C93.8854 55.7018 94.2031 56.1706 94.4219 56.7852C94.6432 57.3971 94.7539 58.1354 94.7539 59C94.7539 59.8698 94.6445 60.612 94.4258 61.2266C94.207 61.8385 93.8906 62.306 93.4766 62.6289C93.0625 62.9492 92.5612 63.1094 91.9727 63.1094ZM91.9727 62.25C92.556 62.25 93.0091 61.9687 93.332 61.4062C93.6549 60.8437 93.8164 60.0417 93.8164 59C93.8164 58.3073 93.7422 57.7174 93.5938 57.2305C93.4479 56.7435 93.237 56.3724 92.9609 56.1172C92.6875 55.862 92.3581 55.7344 91.9727 55.7344C91.3945 55.7344 90.9427 56.0195 90.6172 56.5898C90.2917 57.1576 90.1289 57.9609 90.1289 59C90.1289 59.6927 90.2018 60.2812 90.3477 60.7656C90.4935 61.25 90.7031 61.6185 90.9766 61.8711C91.2526 62.1237 91.5846 62.25 91.9727 62.25ZM98.7852 54.8906C99.1133 54.8932 99.4414 54.9557 99.7695 55.0781C100.098 55.2005 100.397 55.4036 100.668 55.6875C100.939 55.9687 101.156 56.3529 101.32 56.8398C101.484 57.3268 101.566 57.9375 101.566 58.6719C101.566 59.3828 101.499 60.0143 101.363 60.5664C101.23 61.1159 101.038 61.5794 100.785 61.957C100.535 62.3346 100.23 62.6211 99.8711 62.8164C99.5143 63.0117 99.1107 63.1094 98.6602 63.1094C98.2122 63.1094 97.8125 63.0208 97.4609 62.8437C97.112 62.6641 96.8255 62.4154 96.6016 62.0977C96.3802 61.7773 96.2383 61.4062 96.1758 60.9844H97.1289C97.2148 61.3516 97.3854 61.6549 97.6406 61.8945C97.8984 62.1315 98.2383 62.25 98.6602 62.25C99.2773 62.25 99.7643 61.9805 100.121 61.4414C100.48 60.9023 100.66 60.1406 100.66 59.1562H100.598C100.452 59.375 100.279 59.5638 100.078 59.7227C99.8776 59.8815 99.6549 60.0039 99.4102 60.0898C99.1654 60.1758 98.9049 60.2188 98.6289 60.2188C98.1706 60.2188 97.75 60.1055 97.3672 59.8789C96.987 59.6497 96.6823 59.3359 96.4531 58.9375C96.2266 58.5365 96.1133 58.0781 96.1133 57.5625C96.1133 57.0729 96.2227 56.625 96.4414 56.2187C96.6628 55.8099 96.9727 55.4844 97.3711 55.2422C97.7721 55 98.2435 54.8828 98.7852 54.8906ZM98.7852 55.75C98.457 55.75 98.1615 55.832 97.8984 55.9961C97.638 56.1576 97.431 56.3763 97.2773 56.6523C97.1263 56.9258 97.0508 57.2292 97.0508 57.5625C97.0508 57.8958 97.1237 58.1992 97.2695 58.4727C97.418 58.7435 97.6198 58.9596 97.875 59.1211C98.1328 59.2799 98.4258 59.3594 98.7539 59.3594C99.0013 59.3594 99.2318 59.3112 99.4453 59.2148C99.6589 59.1159 99.8451 58.9818 100.004 58.8125C100.165 58.6406 100.292 58.4466 100.383 58.2305C100.474 58.0117 100.52 57.7839 100.52 57.5469C100.52 57.2344 100.444 56.9414 100.293 56.668C100.145 56.3945 99.9388 56.1732 99.6758 56.0039C99.4154 55.8346 99.1185 55.75 98.7852 55.75ZM109.649 58.5703V59.4297H106.149V58.5703H109.649ZM114.35 63V62.2969L116.99 59.4062C117.3 59.0677 117.555 58.7734 117.756 58.5234C117.956 58.2708 118.105 58.0339 118.201 57.8125C118.3 57.5885 118.35 57.3542 118.35 57.1094C118.35 56.8281 118.282 56.5846 118.146 56.3789C118.014 56.1732 117.831 56.0143 117.6 55.9023C117.368 55.7904 117.107 55.7344 116.818 55.7344C116.511 55.7344 116.243 55.7982 116.014 55.9258C115.787 56.0508 115.611 56.2266 115.486 56.4531C115.364 56.6797 115.303 56.9453 115.303 57.25H114.381C114.381 56.7812 114.489 56.3698 114.705 56.0156C114.921 55.6615 115.215 55.3854 115.588 55.1875C115.963 54.9896 116.383 54.8906 116.85 54.8906C117.318 54.8906 117.734 54.9896 118.096 55.1875C118.458 55.3854 118.742 55.6523 118.947 55.9883C119.153 56.3242 119.256 56.6979 119.256 57.1094C119.256 57.4036 119.202 57.6914 119.096 57.9727C118.992 58.2513 118.809 58.5625 118.549 58.9062C118.291 59.2474 117.933 59.6641 117.475 60.1562L115.678 62.0781V62.1406H119.396V63H114.35ZM123.619 63.1094C123.031 63.1094 122.529 62.9492 122.115 62.6289C121.701 62.306 121.385 61.8385 121.166 61.2266C120.947 60.612 120.838 59.8698 120.838 59C120.838 58.1354 120.947 57.3971 121.166 56.7852C121.387 56.1706 121.705 55.7018 122.119 55.3789C122.536 55.0534 123.036 54.8906 123.619 54.8906C124.202 54.8906 124.701 55.0534 125.115 55.3789C125.532 55.7018 125.85 56.1706 126.068 56.7852C126.29 57.3971 126.4 58.1354 126.4 59C126.4 59.8698 126.291 60.612 126.072 61.2266C125.854 61.8385 125.537 62.306 125.123 62.6289C124.709 62.9492 124.208 63.1094 123.619 63.1094ZM123.619 62.25C124.202 62.25 124.656 61.9687 124.979 61.4062C125.301 60.8437 125.463 60.0417 125.463 59C125.463 58.3073 125.389 57.7174 125.24 57.2305C125.094 56.7435 124.883 56.3724 124.607 56.1172C124.334 55.862 124.005 55.7344 123.619 55.7344C123.041 55.7344 122.589 56.0195 122.264 56.5898C121.938 57.1576 121.775 57.9609 121.775 59C121.775 59.6927 121.848 60.2812 121.994 60.7656C122.14 61.25 122.35 61.6185 122.623 61.8711C122.899 62.1237 123.231 62.25 123.619 62.25ZM127.885 63V62.2969L130.525 59.4062C130.835 59.0677 131.09 58.7734 131.291 58.5234C131.492 58.2708 131.64 58.0339 131.736 57.8125C131.835 57.5885 131.885 57.3542 131.885 57.1094C131.885 56.8281 131.817 56.5846 131.682 56.3789C131.549 56.1732 131.367 56.0143 131.135 55.9023C130.903 55.7904 130.643 55.7344 130.354 55.7344C130.046 55.7344 129.778 55.7982 129.549 55.9258C129.322 56.0508 129.146 56.2266 129.021 56.4531C128.899 56.6797 128.838 56.9453 128.838 57.25H127.916C127.916 56.7812 128.024 56.3698 128.24 56.0156C128.456 55.6615 128.751 55.3854 129.123 55.1875C129.498 54.9896 129.919 54.8906 130.385 54.8906C130.854 54.8906 131.269 54.9896 131.631 55.1875C131.993 55.3854 132.277 55.6523 132.482 55.9883C132.688 56.3242 132.791 56.6979 132.791 57.1094C132.791 57.4036 132.738 57.6914 132.631 57.9727C132.527 58.2513 132.344 58.5625 132.084 58.9062C131.826 59.2474 131.468 59.6641 131.01 60.1562L129.213 62.0781V62.1406H132.932V63H127.885ZM137.201 63.1094C136.873 63.1042 136.545 63.0417 136.217 62.9219C135.889 62.8021 135.589 62.6003 135.318 62.3164C135.048 62.0299 134.83 61.6432 134.666 61.1562C134.502 60.6667 134.42 60.0521 134.42 59.3125C134.42 58.6042 134.486 57.9766 134.619 57.4297C134.752 56.8802 134.945 56.418 135.197 56.043C135.45 55.6654 135.755 55.3789 136.111 55.1836C136.471 54.9883 136.876 54.8906 137.326 54.8906C137.774 54.8906 138.173 54.9805 138.521 55.1602C138.873 55.3372 139.16 55.5846 139.381 55.9023C139.602 56.2201 139.745 56.5859 139.811 57H138.857C138.769 56.6406 138.597 56.3424 138.342 56.1055C138.087 55.8685 137.748 55.75 137.326 55.75C136.706 55.75 136.218 56.0195 135.861 56.5586C135.507 57.0977 135.329 57.8542 135.326 58.8281H135.389C135.535 58.6068 135.708 58.418 135.908 58.2617C136.111 58.1029 136.335 57.9805 136.58 57.8945C136.825 57.8086 137.084 57.7656 137.357 57.7656C137.816 57.7656 138.235 57.8802 138.615 58.1094C138.995 58.3359 139.3 58.6497 139.529 59.0508C139.758 59.4492 139.873 59.9062 139.873 60.4219C139.873 60.9167 139.762 61.3698 139.541 61.7812C139.32 62.1901 139.008 62.5156 138.607 62.7578C138.209 62.9974 137.74 63.1146 137.201 63.1094ZM137.201 62.25C137.529 62.25 137.824 62.168 138.084 62.0039C138.347 61.8398 138.554 61.6198 138.705 61.3437C138.859 61.0677 138.936 60.7604 138.936 60.4219C138.936 60.0911 138.861 59.7904 138.713 59.5195C138.567 59.2461 138.365 59.0286 138.107 58.8672C137.852 58.7057 137.561 58.625 137.232 58.625C136.985 58.625 136.755 58.6745 136.541 58.7734C136.327 58.8698 136.14 59.0026 135.979 59.1719C135.82 59.3411 135.695 59.5352 135.604 59.7539C135.512 59.9701 135.467 60.1979 135.467 60.4375C135.467 60.7552 135.541 61.0521 135.689 61.3281C135.84 61.6042 136.046 61.8268 136.307 61.9961C136.57 62.1654 136.868 62.25 137.201 62.25Z" fill="#00BBFF"></path></g></g><defs><radialGradient id="paint0_radial_6626_4" cx="0" cy="0" r="1" gradientUnits="userSpaceOnUse" gradientTransform="translate(48.2859 57.0881) scale(57.6224 57.2328)"><stop offset="0.00558659" stop-color="#88D400"></stop><stop offset="0.4055" stop-color="#4FC96C"></stop><stop offset="0.8161" stop-color="#16BFD5"></stop><stop offset="1" stop-color="#00BBFF"></stop></radialGradient><radialGradient id="paint1_radial_6626_4" cx="0" cy="0" r="1" gradientUnits="userSpaceOnUse" gradientTransform="translate(48.2859 57.0881) scale(57.6224 57.2329)"><stop offset="0.00558659" stop-color="#88D400"></stop><stop offset="0.4055" stop-color="#4FC96C"></stop><stop offset="0.8161" stop-color="#16BFD5"></stop><stop offset="1" stop-color="#00BBFF"></stop></radialGradient><radialGradient id="paint2_radial_6626_4" cx="0" cy="0" r="1" gradientUnits="userSpaceOnUse" gradientTransform="translate(48.286 57.0886) scale(57.6225 57.2328)"><stop offset="0.00558659" stop-color="#88D400"></stop><stop offset="0.4055" stop-color="#4FC96C"></stop><stop offset="0.8161" stop-color="#16BFD5"></stop><stop offset="1" stop-color="#00BBFF"></stop></radialGradient><radialGradient id="paint3_radial_6626_4" cx="0" cy="0" r="1" gradientUnits="userSpaceOnUse" gradientTransform="translate(48.2868 57.0883) scale(57.6224 57.2328)"><stop offset="0.00558659" stop-color="#88D400"></stop><stop offset="0.4055" stop-color="#4FC96C"></stop><stop offset="0.8161" stop-color="#16BFD5"></stop><stop offset="1" stop-color="#00BBFF"></stop></radialGradient><radialGradient id="paint4_radial_6626_4" cx="0" cy="0" r="1" gradientUnits="userSpaceOnUse" gradientTransform="translate(48.2868 57.0886) scale(57.6226 57.2332)"><stop offset="0.00558659" stop-color="#88D400"></stop><stop offset="0.4055" stop-color="#4FC96C"></stop><stop offset="0.8161" stop-color="#16BFD5"></stop><stop offset="1" stop-color="#00BBFF"></stop></radialGradient><radialGradient id="paint5_radial_6626_4" cx="0" cy="0" r="1" gradientUnits="userSpaceOnUse" gradientTransform="translate(48.2864 57.0885) scale(57.6225 57.2326)"><stop offset="0.00558659" stop-color="#88D400"></stop><stop offset="0.4055" stop-color="#4FC96C"></stop><stop offset="0.8161" stop-color="#16BFD5"></stop><stop offset="1" stop-color="#00BBFF"></stop></radialGradient><radialGradient id="paint6_radial_6626_4" cx="0" cy="0" r="1" gradientUnits="userSpaceOnUse" gradientTransform="translate(48.2866 57.0882) scale(57.6224 57.2328)"><stop offset="0.00558659" stop-color="#88D400"></stop><stop offset="0.4055" stop-color="#4FC96C"></stop><stop offset="0.8161" stop-color="#16BFD5"></stop><stop offset="1" stop-color="#00BBFF"></stop></radialGradient><radialGradient id="paint7_radial_6626_4" cx="0" cy="0" r="1" gradientUnits="userSpaceOnUse" gradientTransform="translate(48.2865 57.0885) scale(57.6224 57.2328)"><stop offset="0.00558659" stop-color="#88D400"></stop><stop offset="0.4055" stop-color="#4FC96C"></stop><stop offset="0.8161" stop-color="#16BFD5"></stop><stop offset="1" stop-color="#00BBFF"></stop></radialGradient><radialGradient id="paint8_radial_6626_4" cx="0" cy="0" r="1" gradientUnits="userSpaceOnUse" gradientTransform="translate(48.286 57.0882) scale(57.6223 57.2328)"><stop offset="0.00558659" stop-color="#88D400"></stop><stop offset="0.4055" stop-color="#4FC96C"></stop><stop offset="0.8161" stop-color="#16BFD5"></stop><stop offset="1" stop-color="#00BBFF"></stop></radialGradient><radialGradient id="paint9_radial_6626_4" cx="0" cy="0" r="1" gradientUnits="userSpaceOnUse" gradientTransform="translate(48.2869 57.088) scale(57.6224 57.2328)"><stop offset="0.00558659" stop-color="#88D400"></stop><stop offset="0.4055" stop-color="#4FC96C"></stop><stop offset="0.8161" stop-color="#16BFD5"></stop><stop offset="1" stop-color="#00BBFF"></stop></radialGradient><radialGradient id="paint10_radial_6626_4" cx="0" cy="0" r="1" gradientUnits="userSpaceOnUse" gradientTransform="translate(48.2861 57.0886) scale(57.6224 57.2328)"><stop offset="0.00558659" stop-color="#88D400"></stop><stop offset="0.4055" stop-color="#4FC96C"></stop><stop offset="0.8161" stop-color="#16BFD5"></stop><stop offset="1" stop-color="#00BBFF"></stop></radialGradient><radialGradient id="paint11_radial_6626_4" cx="0" cy="0" r="1" gradientUnits="userSpaceOnUse" gradientTransform="translate(48.2865 57.0881) scale(57.6224 57.2328)"><stop offset="0.00558659" stop-color="#88D400"></stop><stop offset="0.4055" stop-color="#4FC96C"></stop><stop offset="0.8161" stop-color="#16BFD5"></stop><stop offset="1" stop-color="#00BBFF"></stop></radialGradient><radialGradient id="paint12_radial_6626_4" cx="0" cy="0" r="1" gradientUnits="userSpaceOnUse" gradientTransform="translate(48.2862 57.088) scale(57.6224 57.2328)"><stop offset="0.00558659" stop-color="#88D400"></stop><stop offset="0.4055" stop-color="#4FC96C"></stop><stop offset="0.8161" stop-color="#16BFD5"></stop><stop offset="1" stop-color="#00BBFF"></stop></radialGradient><radialGradient id="paint13_radial_6626_4" cx="0" cy="0" r="1" gradientUnits="userSpaceOnUse" gradientTransform="translate(48.2865 57.0882) scale(57.6224 57.2329)"><stop offset="0.00558659" stop-color="#88D400"></stop><stop offset="0.4055" stop-color="#4FC96C"></stop><stop offset="0.8161" stop-color="#16BFD5"></stop><stop offset="1" stop-color="#00BBFF"></stop></radialGradient><clipPath id="clip0_6626_4"><rect width="173" height="65" fill="white"></rect></clipPath></defs></svg> 